<?xml version="1.0" encoding="UTF-8"?>
<svg xmlns="http://www.w3.org/2000/svg" style="display: none;">
    <symbol id="TextInput" viewBox="0 0 1024 1024">
        <title>TextInput</title>
        <g style="pointer-events:all">
            <g stroke-opacity="1">
                <rect stroke="#808080" height="468.80658" width="1156.54317" y="358.18931" x="-69.53086707336425" stroke-linecap="null" stroke-linejoin="null" stroke-dasharray="null" stroke-width="32" fill="#ffffff" fill-opacity="1" stroke-opacity="1"></rect>
                <text stroke="#808080" transform="matrix(18.141660690307617,0,0,5.216737270355225,-2768.37820148468,-2311.7603219524026) " xml:space="preserve" text-anchor="middle" font-family="serif" font-size="24" y="568.88889" x="167.50617" stroke-linecap="null" stroke-linejoin="null" stroke-dasharray="null" fill="#000000"></text>
                <line y2="723.9999977666023" x2="57.925922926635735" y1="453.1851758326515" x1="59.70370292663574" stroke-linecap="null" stroke-linejoin="null" stroke-dasharray="null" stroke-width="32" fill="none" fill-opacity="1" stroke-opacity="1" stroke="#808080"></line>
                <line y2="464.44444650772095" x2="138.51851331466673" y1="462.66666650772095" x1="-12.592596685333248" stroke-linecap="null" stroke-linejoin="null" stroke-dasharray="null" stroke-width="32" stroke="#808080" fill="none" fill-opacity="1" stroke-opacity="1"></line>
                <line y2="732.1481403744507" x2="139.55556165451048" y1="730.3703603744507" x1="-11.555548345489456" stroke-linecap="null" stroke-linejoin="null" stroke-dasharray="null" stroke-width="32" stroke="#808080" fill="none" fill-opacity="1" stroke-opacity="1"></line>
            </g>
        </g>
    </symbol>
    <symbol id="PlainText" viewBox="0 0 1024 1024">
       <path d="M746.0864 161.6896l7.5264 158.976h-18.9952c-3.6864-28.0064-8.704-47.9744-15.0016-60.0064a100.352 100.352 0 0 0-41.2672-42.752c-17.152-9.1648-39.7312-13.7216-67.7376-13.7216H515.072v517.9904c0 41.6768 4.4544 67.6864 13.4656 78.0288 12.6976 13.9776 32.1536 20.992 58.5216 20.992h23.5008v18.4832H323.072v-18.4832h23.9616c28.672 0 48.9984-8.704 61.0304-26.0096 7.3216-10.6496 11.008-35.0208 11.008-73.0112V204.1856H337.6128c-31.6928 0-54.1696 2.304-67.5328 7.0144-17.3056 6.2976-32.1536 18.432-44.4928 36.5056-12.288 17.9712-19.6608 42.2912-22.016 72.96h-18.944l7.9872-158.976h553.472z" fill="#808080" p-id="33965"></path>
    </symbol>
</svg>